<mxfile host="Electron" agent="Mozilla/5.0 (Windows NT 10.0; Win64; x64) AppleWebKit/537.36 (KHTML, like Gecko) draw.io/26.2.15 Chrome/134.0.6998.205 Electron/35.2.1 Safari/537.36" version="26.2.15">
  <diagram name="Page-1" id="DykEufOzRKVPGW1OUmXY">
    <mxGraphModel dx="1096" dy="762" grid="1" gridSize="10" guides="1" tooltips="1" connect="1" arrows="1" fold="1" page="1" pageScale="1" pageWidth="1169" pageHeight="827" math="0" shadow="0">
      <root>
        <mxCell id="0" />
        <mxCell id="1" parent="0" />
        <mxCell id="EtJyKOYg3Oh_ckhpGBFp-1" value="GPS&lt;div&gt;Satelit 1&lt;/div&gt;" style="ellipse;whiteSpace=wrap;html=1;aspect=fixed;" vertex="1" parent="1">
          <mxGeometry x="520" y="110" width="80" height="80" as="geometry" />
        </mxCell>
        <mxCell id="EtJyKOYg3Oh_ckhpGBFp-2" value="GPS&lt;div&gt;Satelit 2&lt;/div&gt;" style="ellipse;whiteSpace=wrap;html=1;aspect=fixed;" vertex="1" parent="1">
          <mxGeometry x="350" y="210" width="80" height="80" as="geometry" />
        </mxCell>
        <mxCell id="EtJyKOYg3Oh_ckhpGBFp-3" value="GPS&lt;div&gt;Satelit 3&lt;/div&gt;" style="ellipse;whiteSpace=wrap;html=1;aspect=fixed;" vertex="1" parent="1">
          <mxGeometry x="680" y="180" width="80" height="80" as="geometry" />
        </mxCell>
        <mxCell id="EtJyKOYg3Oh_ckhpGBFp-4" value="GPS&lt;div&gt;Satelit 4&lt;/div&gt;" style="ellipse;whiteSpace=wrap;html=1;aspect=fixed;" vertex="1" parent="1">
          <mxGeometry x="130" y="310" width="80" height="80" as="geometry" />
        </mxCell>
        <mxCell id="EtJyKOYg3Oh_ckhpGBFp-7" value="" style="endArrow=none;html=1;rounded=0;exitX=1;exitY=0.5;exitDx=0;exitDy=0;exitPerimeter=0;" edge="1" parent="1">
          <mxGeometry width="50" height="50" relative="1" as="geometry">
            <mxPoint x="560" y="425.93499999999995" as="sourcePoint" />
            <mxPoint x="560" y="400" as="targetPoint" />
          </mxGeometry>
        </mxCell>
        <mxCell id="EtJyKOYg3Oh_ckhpGBFp-8" value="" style="triangle;whiteSpace=wrap;html=1;rotation=90;" vertex="1" parent="1">
          <mxGeometry x="550" y="374" width="20" height="40" as="geometry" />
        </mxCell>
        <mxCell id="EtJyKOYg3Oh_ckhpGBFp-9" value="" style="endArrow=none;html=1;rounded=0;exitX=1;exitY=0.5;exitDx=0;exitDy=0;fillColor=#dae8fc;strokeColor=#6c8ebf;" edge="1" parent="1" source="EtJyKOYg3Oh_ckhpGBFp-18">
          <mxGeometry width="50" height="50" relative="1" as="geometry">
            <mxPoint x="510" y="450" as="sourcePoint" />
            <mxPoint x="560" y="390" as="targetPoint" />
          </mxGeometry>
        </mxCell>
        <mxCell id="EtJyKOYg3Oh_ckhpGBFp-10" value="" style="endArrow=none;html=1;rounded=0;entryX=1;entryY=1;entryDx=0;entryDy=0;fillColor=#f8cecc;strokeColor=#b85450;" edge="1" parent="1" source="EtJyKOYg3Oh_ckhpGBFp-16" target="EtJyKOYg3Oh_ckhpGBFp-2">
          <mxGeometry width="50" height="50" relative="1" as="geometry">
            <mxPoint x="560" y="390" as="sourcePoint" />
            <mxPoint x="590" y="320" as="targetPoint" />
          </mxGeometry>
        </mxCell>
        <mxCell id="EtJyKOYg3Oh_ckhpGBFp-11" value="" style="endArrow=none;html=1;rounded=0;entryX=0.5;entryY=1;entryDx=0;entryDy=0;fillColor=#d5e8d4;strokeColor=#82b366;" edge="1" parent="1" source="EtJyKOYg3Oh_ckhpGBFp-14" target="EtJyKOYg3Oh_ckhpGBFp-1">
          <mxGeometry width="50" height="50" relative="1" as="geometry">
            <mxPoint x="560" y="390" as="sourcePoint" />
            <mxPoint x="530" y="270" as="targetPoint" />
          </mxGeometry>
        </mxCell>
        <mxCell id="EtJyKOYg3Oh_ckhpGBFp-12" value="" style="endArrow=none;html=1;rounded=0;entryX=0;entryY=1;entryDx=0;entryDy=0;fillColor=#e1d5e7;strokeColor=#9673a6;exitX=0;exitY=0.5;exitDx=0;exitDy=0;" edge="1" parent="1" source="EtJyKOYg3Oh_ckhpGBFp-20" target="EtJyKOYg3Oh_ckhpGBFp-3">
          <mxGeometry width="50" height="50" relative="1" as="geometry">
            <mxPoint x="560" y="390" as="sourcePoint" />
            <mxPoint x="630" y="280" as="targetPoint" />
          </mxGeometry>
        </mxCell>
        <mxCell id="EtJyKOYg3Oh_ckhpGBFp-15" value="" style="endArrow=none;html=1;rounded=0;entryX=1;entryY=0.5;entryDx=0;entryDy=0;fillColor=#d5e8d4;strokeColor=#82b366;" edge="1" parent="1" target="EtJyKOYg3Oh_ckhpGBFp-14">
          <mxGeometry width="50" height="50" relative="1" as="geometry">
            <mxPoint x="560" y="390" as="sourcePoint" />
            <mxPoint x="560" y="190" as="targetPoint" />
          </mxGeometry>
        </mxCell>
        <mxCell id="EtJyKOYg3Oh_ckhpGBFp-14" value="" style="triangle;whiteSpace=wrap;html=1;rotation=90;fillColor=#d5e8d4;strokeColor=#82b366;" vertex="1" parent="1">
          <mxGeometry x="555" y="250" width="10" height="20" as="geometry" />
        </mxCell>
        <mxCell id="EtJyKOYg3Oh_ckhpGBFp-17" value="" style="endArrow=none;html=1;rounded=0;entryX=1;entryY=0.5;entryDx=0;entryDy=0;fillColor=#f8cecc;strokeColor=#b85450;" edge="1" parent="1" target="EtJyKOYg3Oh_ckhpGBFp-16">
          <mxGeometry width="50" height="50" relative="1" as="geometry">
            <mxPoint x="560" y="390" as="sourcePoint" />
            <mxPoint x="418" y="278" as="targetPoint" />
          </mxGeometry>
        </mxCell>
        <mxCell id="EtJyKOYg3Oh_ckhpGBFp-16" value="" style="triangle;whiteSpace=wrap;html=1;rotation=40;fillColor=#f8cecc;strokeColor=#b85450;" vertex="1" parent="1">
          <mxGeometry x="473.75" y="320" width="10" height="20" as="geometry" />
        </mxCell>
        <mxCell id="EtJyKOYg3Oh_ckhpGBFp-19" value="" style="endArrow=none;html=1;rounded=0;fillColor=#dae8fc;strokeColor=#6c8ebf;" edge="1" parent="1" target="EtJyKOYg3Oh_ckhpGBFp-18">
          <mxGeometry width="50" height="50" relative="1" as="geometry">
            <mxPoint x="350" y="360" as="sourcePoint" />
            <mxPoint x="560" y="390" as="targetPoint" />
          </mxGeometry>
        </mxCell>
        <mxCell id="EtJyKOYg3Oh_ckhpGBFp-18" value="" style="triangle;whiteSpace=wrap;html=1;rotation=15;fillColor=#dae8fc;strokeColor=#6c8ebf;" vertex="1" parent="1">
          <mxGeometry x="420" y="360" width="10" height="20" as="geometry" />
        </mxCell>
        <mxCell id="EtJyKOYg3Oh_ckhpGBFp-21" value="" style="endArrow=none;html=1;rounded=0;entryX=1;entryY=0.5;entryDx=0;entryDy=0;fillColor=#e1d5e7;strokeColor=#9673a6;" edge="1" parent="1" target="EtJyKOYg3Oh_ckhpGBFp-20">
          <mxGeometry width="50" height="50" relative="1" as="geometry">
            <mxPoint x="560" y="390" as="sourcePoint" />
            <mxPoint x="692" y="248" as="targetPoint" />
          </mxGeometry>
        </mxCell>
        <mxCell id="EtJyKOYg3Oh_ckhpGBFp-20" value="" style="triangle;whiteSpace=wrap;html=1;rotation=128;fillColor=#e1d5e7;strokeColor=#9673a6;" vertex="1" parent="1">
          <mxGeometry x="626.25" y="300" width="10" height="20" as="geometry" />
        </mxCell>
        <mxCell id="EtJyKOYg3Oh_ckhpGBFp-22" value="" style="shape=or;whiteSpace=wrap;html=1;rotation=-90;" vertex="1" parent="1">
          <mxGeometry x="545" y="120" width="30" height="625.35" as="geometry" />
        </mxCell>
        <mxCell id="EtJyKOYg3Oh_ckhpGBFp-13" value="&lt;b&gt;&lt;font style=&quot;font-size: 16px;&quot;&gt;X, Y, Z, T&lt;/font&gt;&lt;/b&gt;" style="text;html=1;align=center;verticalAlign=middle;whiteSpace=wrap;rounded=0;" vertex="1" parent="1">
          <mxGeometry x="510" y="417.67" width="100" height="30" as="geometry" />
        </mxCell>
        <mxCell id="EtJyKOYg3Oh_ckhpGBFp-26" value="" style="group;rotation=-15;" vertex="1" connectable="0" parent="1">
          <mxGeometry x="250" y="320" width="120" height="70" as="geometry" />
        </mxCell>
        <mxCell id="EtJyKOYg3Oh_ckhpGBFp-25" value="" style="rounded=0;whiteSpace=wrap;html=1;rotation=75;fillColor=#f5f5f5;fontColor=#333333;strokeColor=#000000;" vertex="1" parent="EtJyKOYg3Oh_ckhpGBFp-26">
          <mxGeometry x="51" y="11" width="68.57142857142857" height="35" as="geometry" />
        </mxCell>
        <mxCell id="EtJyKOYg3Oh_ckhpGBFp-24" value="" style="rounded=0;whiteSpace=wrap;html=1;rotation=75;fillColor=#f5f5f5;fontColor=#333333;strokeColor=#000000;" vertex="1" parent="EtJyKOYg3Oh_ckhpGBFp-26">
          <mxGeometry x="-16" y="29" width="68.57142857142857" height="35" as="geometry" />
        </mxCell>
        <mxCell id="EtJyKOYg3Oh_ckhpGBFp-23" value="GPS&lt;div&gt;Satelit 4&lt;/div&gt;" style="ellipse;whiteSpace=wrap;html=1;aspect=fixed;fillColor=#f5f5f5;fontColor=#333333;strokeColor=#000000;rotation=-15;" vertex="1" parent="EtJyKOYg3Oh_ckhpGBFp-26">
          <mxGeometry x="28.11" y="7.000000000000001" width="57" height="57" as="geometry" />
        </mxCell>
      </root>
    </mxGraphModel>
  </diagram>
</mxfile>
